<svg width="601" height="601" viewBox="0 0 601 601" fill="none" xmlns="http://www.w3.org/2000/svg">
<path d="M33.3933 460.173V140.173C33.3933 102.836 33.3933 84.154 40.6596 69.8933C47.051 57.349 57.2423 47.1577 69.7866 40.7663C84.0473 33.5 102.73 33.5 140.067 33.5H460.067C497.403 33.5 516.047 33.5 530.307 40.7663C542.85 47.1577 553.077 57.349 559.467 69.8933C566.727 84.14 566.727 102.8 566.727 140.064V460.287C566.727 497.55 566.727 516.183 559.467 530.43C553.077 542.973 542.85 553.183 530.307 559.573C516.06 566.833 497.427 566.833 460.163 566.833H139.957C102.693 566.833 84.0333 566.833 69.7866 559.573C57.2423 553.183 47.051 542.973 40.6596 530.43C33.3933 516.17 33.3933 497.51 33.3933 460.173Z" stroke="#1283BE" stroke-width="66.6667" stroke-linecap="round" stroke-linejoin="round"/>
<path d="M167 300L267 400L433.667 200" stroke="#E2A348" stroke-width="66.6667" stroke-linecap="round" stroke-linejoin="round"/>
</svg>
