<svg width="600" height="600" viewBox="0 0 600 600" fill="none" xmlns="http://www.w3.org/2000/svg">
<path d="M33.3334 140.007V460.007C33.3334 497.343 33.3334 516.003 40.5997 530.263C46.991 542.807 57.1824 553.017 69.7267 559.407C83.9734 566.667 102.633 566.667 139.897 566.667H460.103C497.367 566.667 516 566.667 530.247 559.407C542.79 553.017 553.017 542.807 559.407 530.263C566.667 516.017 566.667 497.383 566.667 460.12V139.897C566.667 102.633 566.667 83.9735 559.407 69.7268C553.017 57.1825 542.79 46.9912 530.247 40.5998C515.987 33.3335 497.343 33.3335 460.007 33.3335H140.007C102.67 33.3335 83.9874 33.3335 69.7267 40.5998C57.1824 46.9912 46.991 57.1825 40.5997 69.7268C33.3334 83.9875 33.3334 102.67 33.3334 140.007Z" stroke="#1283BE" stroke-width="66.6667" stroke-linecap="round" stroke-linejoin="round"/>
</svg>
