<svg width="774" height="774" viewBox="0 0 774 774" fill="none" xmlns="http://www.w3.org/2000/svg">
<path d="M462.437 275.118C452.983 265.68 452.97 250.365 462.408 240.911C471.846 231.458 487.16 231.445 496.614 240.882L462.437 275.118ZM629.839 373.881C639.292 383.32 639.305 398.633 629.868 408.088C620.43 417.541 605.115 417.554 595.661 408.117L629.839 373.881ZM596.2 373.362C605.942 364.219 621.249 364.709 630.389 374.448C639.529 384.191 639.042 399.497 629.3 408.637L596.2 373.362ZM496.075 533.638C486.334 542.78 471.027 542.29 461.886 532.551C452.746 522.808 453.233 507.502 462.975 498.363L496.075 533.638ZM612.75 366.812C626.108 366.812 636.938 377.641 636.938 390.999C636.938 404.357 626.108 415.187 612.75 415.187V366.812ZM278.318 390.999V415.187H278.243L278.318 390.999ZM185.438 507.457C185.402 520.815 174.54 531.612 161.182 531.577C147.824 531.541 137.027 520.68 137.063 507.322L185.438 507.457ZM496.614 240.882L629.839 373.881L595.661 408.117L462.437 275.118L496.614 240.882ZM629.3 408.637L496.075 533.638L462.975 498.363L596.2 373.362L629.3 408.637ZM612.75 415.187H278.318V366.812H612.75V415.187ZM278.243 415.187C253.701 415.112 230.133 424.791 212.728 442.096L178.62 407.792C205.126 381.44 241.014 366.699 278.392 366.812L278.243 415.187ZM212.728 442.096C195.322 459.401 185.505 482.912 185.438 507.457L137.063 507.322C137.166 469.947 152.114 434.143 178.62 407.792L212.728 442.096Z" fill="black"/>
</svg>
